<svg xmlns="http://www.w3.org/2000/svg" height="512" viewBox="0 0 444 444" width="512"><path d="M7 0h181c3.867 0 7 3.133 7 7v181c0 3.867-3.133 7-7 7H7c-3.867 0-7-3.133-7-7V7c0-3.867 3.133-7 7-7zm249 0h181c3.867 0 7 3.133 7 7v181c0 3.867-3.133 7-7 7H256c-3.867 0-7-3.133-7-7V7c0-3.867 3.133-7 7-7zM7 249h181c3.867 0 7 3.133 7 7v181c0 3.867-3.133 7-7 7H7c-3.867 0-7-3.133-7-7V256c0-3.867 3.133-7 7-7zm249 0h181c3.867 0 7 3.133 7 7v181c0 3.867-3.133 7-7 7H256c-3.867 0-7-3.133-7-7V256c0-3.867 3.133-7 7-7zm0 0" data-original="#000000" class="active-path" data-old_color="#000000" fill="#FFF"/></svg>